<?xml version="1.0" encoding="UTF-8" standalone="no"?>
<!-- Created with Inkscape (http://www.inkscape.org/) -->

<svg
   width="30.768938mm"
   height="29.212099mm"
   viewBox="0 0 30.768938 29.212099"
   version="1.1"
   id="svg5"
   xmlns:xlink="http://www.w3.org/1999/xlink"
   xmlns="http://www.w3.org/2000/svg"
   xmlns:svg="http://www.w3.org/2000/svg">
  <defs
     id="defs2">
    <linearGradient
       id="linearGradient12770">
      <stop
         style="stop-color:#7dff7d;stop-opacity:1;"
         offset="0"
         id="stop12766" />
      <stop
         style="stop-color:#00d004;stop-opacity:0.22239999"
         offset="1"
         id="stop12768" />
    </linearGradient>
    <linearGradient
       id="linearGradient11414">
      <stop
         style="stop-color:#003d80;stop-opacity:1;"
         offset="0"
         id="stop11410" />
      <stop
         style="stop-color:#003d80;stop-opacity:0;"
         offset="1"
         id="stop11412" />
    </linearGradient>
    <linearGradient
       id="linearGradient11178">
      <stop
         style="stop-color:#c71800;stop-opacity:1;"
         offset="0"
         id="stop11174" />
      <stop
         style="stop-color:#c71800;stop-opacity:0;"
         offset="1"
         id="stop11176" />
    </linearGradient>
    <linearGradient
       xlink:href="#linearGradient11178"
       id="linearGradient11180"
       x1="331.98352"
       y1="299.93158"
       x2="315.09213"
       y2="90.530319"
       gradientUnits="userSpaceOnUse" />
    <linearGradient
       xlink:href="#linearGradient11414"
       id="linearGradient11416"
       x1="241.74631"
       y1="155.22441"
       x2="464.36841"
       y2="302.1723"
       gradientUnits="userSpaceOnUse" />
    <linearGradient
       xlink:href="#linearGradient12770"
       id="linearGradient12772"
       x1="278.62064"
       y1="123.74961"
       x2="368.16235"
       y2="280.1929"
       gradientUnits="userSpaceOnUse" />
  </defs>
  <g
     id="layer1"
     transform="translate(-71.21205,-61.996483)">
    <path
       style="fill:url(#linearGradient12772);fill-opacity:1;stroke:none;stroke-width:1.00157;stroke-miterlimit:4;stroke-dasharray:none;stroke-opacity:0.9472"
       id="green"
       transform="matrix(0.34655085,-0.16617073,0.16617073,0.34655085,-60.645549,54.741668)"
       d="m 343.9565,222.44663 c -10.02197,41.20141 -10.02197,41.20141 -40.69245,11.92143 -30.67049,-29.27998 -30.67049,-29.27998 10.02196,-41.20141 40.69245,-11.92143 40.69245,-11.92143 30.67049,29.27998 z" />
    <path
       style="fill:url(#linearGradient11416);fill-opacity:1;stroke:none;stroke-width:1.00157;stroke-miterlimit:4;stroke-dasharray:none;stroke-opacity:0.9472"
       id="liberal"
       transform="matrix(0.38118727,0.0490558,-0.0490558,0.38118727,-25.807864,-22.209042)"
       d="m 343.9565,222.44663 c -10.02197,41.20141 -10.02197,41.20141 -40.69245,11.92143 -30.67049,-29.27998 -30.67049,-29.27998 10.02196,-41.20141 40.69245,-11.92143 40.69245,-11.92143 30.67049,29.27998 z" />
    <path
       style="fill:url(#linearGradient11180);fill-opacity:1;stroke:none;stroke-width:1.00157;stroke-miterlimit:4;stroke-dasharray:none;stroke-opacity:0.9472"
       id="labor"
       transform="matrix(0.15057635,-0.35360565,0.35360565,0.15057635,-38.037351,157.45029)"
       d="m 343.9565,222.44663 c -10.02197,41.20141 -10.02197,41.20141 -40.69245,11.92143 -30.67049,-29.27998 -30.67049,-29.27998 10.02196,-41.20141 40.69245,-11.92143 40.69245,-11.92143 30.67049,29.27998 z" />
  </g>
</svg>
